<?xml version="1.0"?>
<!-- Created by MetaPost 2.02 on 2023.04.15:1550 -->
<svg version="1.1" xmlns="http://www.w3.org/2000/svg" xmlns:xlink="http://www.w3.org/1999/xlink" width="13.04205" height="17.036715" viewBox="0 0 869.470000 1135.781000" id="aya">
<!-- Original BoundingBox: 0.000000 -250.000000 869.470000 885.781000 -->
  <path d="M426.735000 935.232000C426.735000 1003.537622,475.890595 1038.454000,569.887000 1038.454000C706.985230 1038.454000,869.470000 844.874299,869.470000 612.759000C869.470000 599.729047,835.669000 596.915870,835.669000 612.759000C835.669000 701.875023,771.261195 806.056140,674.635000 838.766000C636.319319 851.736609,569.994000 862.053675,569.994000 871.095000C569.994000 900.263482,616.299000 932.491111,616.299000 935.426000C616.299000 940.903673,573.466332 954.084000,559.085000 954.084000C555.754104 954.084000,552.512000 952.408619,552.512000 949.408000C552.512000 945.582101,562.132000 931.159919,562.132000 920.843000C562.132000 884.483814,532.064551 855.420000,495.472000 855.420000C451.754629 855.420000,426.735000 893.028915,426.735000 935.232000Z" style="fill: rgb(0.000000%,0.000000%,0.000000%);stroke: none;"></path>
  <path d="M446.263000 940.571000C446.263000 907.399837,465.706585 876.328000,496.313000 876.328000C511.470038 876.328000,538.425000 894.248646,538.425000 916.965000C538.425000 929.428709,529.450961 940.241000,517.411000 940.241000C499.901386 940.241000,504.492890 906.179000,495.859000 906.179000C486.133358 906.179000,478.489529 928.046732,488.271000 947.830000C496.315008 964.099206,514.682603 971.459000,533.120000 971.459000C640.226869 971.459000,739.803000 902.105441,739.803000 868.792000C739.803000 862.477054,736.079301 855.485000,733.576000 855.485000C723.801362 855.485000,690.995818 912.625000,651.272000 912.625000C631.313567 912.625000,610.508000 894.851207,610.508000 888.870000C610.508000 876.771954,663.986229 872.945007,709.060000 850.720000C750.369416 830.351123,788.262438 791.347672,813.715000 748.576000C817.273515 742.596105,823.022512 732.593000,824.196000 732.593000C826.746917 732.593000,827.777000 735.608532,827.777000 738.532000C827.777000 794.955349,716.858491 1018.721000,554.339000 1018.721000C494.539761 1018.721000,446.263000 975.036895,446.263000 940.571000Z" style="fill: rgb(100.000000%,100.000000%,100.000000%);stroke: none;"></path>
  <path d="M442.735000 935.232000C442.735000 1003.537622,393.579405 1038.454000,299.583000 1038.454000C162.484770 1038.454000,0.000000 844.874299,0.000000 612.759000C0.000000 599.729047,33.801000 596.915870,33.801000 612.759000C33.801000 701.875023,98.208805 806.056140,194.835000 838.766000C233.150681 851.736609,299.476000 862.053675,299.476000 871.095000C299.476000 900.263482,253.171000 932.491111,253.171000 935.426000C253.171000 940.903673,296.003668 954.084000,310.385000 954.084000C313.715896 954.084000,316.958000 952.408619,316.958000 949.408000C316.958000 945.582101,307.338000 931.159919,307.338000 920.843000C307.338000 884.483814,337.405449 855.420000,373.998000 855.420000C417.715371 855.420000,442.735000 893.028915,442.735000 935.232000Z" style="fill: rgb(0.000000%,0.000000%,0.000000%);stroke: none;"></path>
  <path d="M423.207000 940.571000C423.207000 907.399837,403.763415 876.328000,373.157000 876.328000C357.999962 876.328000,331.045000 894.248646,331.045000 916.965000C331.045000 929.428709,340.019039 940.241000,352.059000 940.241000C369.568614 940.241000,364.977110 906.179000,373.611000 906.179000C383.336642 906.179000,390.980471 928.046732,381.199000 947.830000C373.154992 964.099206,354.787397 971.459000,336.350000 971.459000C229.243131 971.459000,129.667000 902.105441,129.667000 868.792000C129.667000 862.477054,133.390699 855.485000,135.894000 855.485000C145.668638 855.485000,178.474182 912.625000,218.198000 912.625000C238.156433 912.625000,258.962000 894.851207,258.962000 888.870000C258.962000 876.771954,205.483771 872.945007,160.410000 850.720000C119.100584 830.351123,81.207562 791.347672,55.755000 748.576000C52.196485 742.596105,46.447488 732.593000,45.274000 732.593000C42.723083 732.593000,41.693000 735.608532,41.693000 738.532000C41.693000 794.955349,152.611509 1018.721000,315.131000 1018.721000C374.930239 1018.721000,423.207000 975.036895,423.207000 940.571000Z" style="fill: rgb(100.000000%,100.000000%,100.000000%);stroke: none;"></path>
  <path d="M442.735000 290.286000C442.735000 221.980378,393.579405 187.064000,299.583000 187.064000C162.484770 187.064000,0.000000 380.643701,0.000000 612.759000C0.000000 625.788953,33.801000 628.602130,33.801000 612.759000C33.801000 523.642977,98.208805 419.461860,194.835000 386.752000C233.150681 373.781391,299.476000 363.464325,299.476000 354.423000C299.476000 325.254518,253.171000 293.026889,253.171000 290.092000C253.171000 284.614327,296.003668 271.434000,310.385000 271.434000C313.715896 271.434000,316.958000 273.109381,316.958000 276.110000C316.958000 279.935899,307.338000 294.358081,307.338000 304.675000C307.338000 341.034186,337.405449 370.098000,373.998000 370.098000C417.715371 370.098000,442.735000 332.489085,442.735000 290.286000Z" style="fill: rgb(0.000000%,0.000000%,0.000000%);stroke: none;"></path>
  <path d="M423.207000 284.947000C423.207000 318.118163,403.763415 349.190000,373.157000 349.190000C357.999962 349.190000,331.045000 331.269354,331.045000 308.553000C331.045000 296.089291,340.019039 285.277000,352.059000 285.277000C369.568614 285.277000,364.977110 319.339000,373.611000 319.339000C383.336642 319.339000,390.980471 297.471268,381.199000 277.688000C373.154992 261.418794,354.787397 254.059000,336.350000 254.059000C229.243131 254.059000,129.667000 323.412559,129.667000 356.726000C129.667000 363.040946,133.390699 370.033000,135.894000 370.033000C145.668638 370.033000,178.474182 312.893000,218.198000 312.893000C238.156433 312.893000,258.962000 330.666793,258.962000 336.648000C258.962000 348.746046,205.483771 352.572993,160.410000 374.798000C119.100584 395.166877,81.207562 434.170328,55.755000 476.942000C52.196485 482.921895,46.447488 492.925000,45.274000 492.925000C42.723083 492.925000,41.693000 489.909468,41.693000 486.986000C41.693000 430.562651,152.611509 206.797000,315.131000 206.797000C374.930239 206.797000,423.207000 250.481105,423.207000 284.947000Z" style="fill: rgb(100.000000%,100.000000%,100.000000%);stroke: none;"></path>
  <path d="M434.735000 -0.781000C420.061000 -0.781000,420.061000 21.230000,434.735000 21.230000C452.170409 21.230000,464.910000 37.194282,464.910000 55.370000C464.910000 72.514660,438.521000 77.114340,438.521000 94.259000C438.521000 98.333103,442.997657 100.509000,447.549000 100.509000C452.003941 100.509000,479.483699 81.734000,498.013000 81.734000C521.386874 81.734000,546.855000 85.989298,546.855000 106.064000C546.855000 115.530961,482.966000 115.865767,482.966000 139.398000C482.966000 146.426490,492.153542 147.037000,500.327000 147.037000C508.511687 147.037000,538.594952 130.941000,559.355000 130.941000C587.153859 130.941000,606.964938 160.671336,613.058216 193.111658L613.057275 193.111406C598.534119 189.137077,584.074625 187.064000,569.887000 187.064000C497.859329 187.064000,452.161588 207.566435,434.735215 247.884171L434.734785 247.884171C417.308412 207.566435,371.610671 187.064000,299.583000 187.064000C285.395375 187.064000,270.935881 189.137077,256.412725 193.111406L256.411784 193.111658C262.505062 160.671336,282.316141 130.941000,310.115000 130.941000C330.875048 130.941000,360.958313 147.037000,369.143000 147.037000C377.316458 147.037000,386.504000 146.426490,386.504000 139.398000C386.504000 115.865767,322.615000 115.530961,322.615000 106.064000C322.615000 85.989298,348.083126 81.734000,371.457000 81.734000C389.986301 81.734000,417.466059 100.509000,421.921000 100.509000C426.472343 100.509000,430.949000 98.333103,430.949000 94.259000C430.949000 77.114340,404.560000 72.514660,404.560000 55.370000C404.560000 37.194282,417.299591 21.230000,434.735000 21.230000C449.409000 21.230000,449.409000 -0.781000,434.735000 -0.781000Z" style="fill: rgb(86.274510%,94.117647%,100.000000%);stroke: none;"></path>
  <path d="M434.735000 141.325000C420.482333 141.325000,420.482333 162.704000,434.735000 162.704000C457.934011 162.704000,476.521172 180.424848,480.323785 203.047659C480.324194 203.050088,480.325817 203.046070,480.323971 203.046930C458.524683 213.205209,443.252863 228.177703,434.735215 247.884171L434.734785 247.884171C426.217137 228.177703,410.945317 213.205209,389.146029 203.046930C389.144183 203.046070,389.145806 203.050088,389.146215 203.047659C392.948828 180.424848,411.535989 162.704000,434.735000 162.704000C448.987667 162.704000,448.987667 141.325000,434.735000 141.325000Z" style="fill: rgb(28.627451%,74.509804%,91.372549%);stroke: none;"></path>
  <path d="M434.735000 1113.954000C446.713194 1113.954000,464.706921 1113.152968,474.352000 1102.475000C480.260623 1095.933624,484.146447 1084.499000,491.646000 1084.499000C500.658388 1084.499000,521.176448 1090.057000,536.201000 1090.057000C553.523129 1090.057000,560.970950 1070.082515,575.076000 1061.350000C592.162371 1050.771733,619.019669 1056.861691,628.606000 1037.719000C630.375134 1034.186262,631.002260 1030.385160,631.175681 1026.481376C631.175790 1026.478922,631.183286 1026.478374,631.178934 1026.480027C610.597233 1034.300230,589.969749 1038.454000,569.887000 1038.454000C497.859329 1038.454000,452.161588 1017.951565,434.735215 977.633829L434.734785 977.633829C417.308412 1017.951565,371.610671 1038.454000,299.583000 1038.454000C279.500251 1038.454000,258.872767 1034.300230,238.291066 1026.480027C238.286714 1026.478374,238.294210 1026.478922,238.294319 1026.481376C238.467740 1030.385160,239.094866 1034.186262,240.864000 1037.719000C250.450331 1056.861691,277.307629 1050.771733,294.394000 1061.350000C308.499050 1070.082515,315.946871 1090.057000,333.269000 1090.057000C348.293552 1090.057000,368.811612 1084.499000,377.824000 1084.499000C385.323553 1084.499000,389.209377 1095.933624,395.118000 1102.475000C404.763079 1113.152968,422.756806 1113.954000,434.735000 1113.954000Z" style="fill: rgb(86.274510%,94.117647%,100.000000%);stroke: none;"></path>
  <path d="M835.669000 612.759000C835.669000 701.875023,771.261195 806.056140,674.635000 838.766000C636.319319 851.736609,569.994000 862.053675,569.994000 871.095000C569.994000 900.263482,616.299000 932.491111,616.299000 935.426000C616.299000 940.903673,573.466332 954.084000,559.085000 954.084000C555.754104 954.084000,552.512000 952.408619,552.512000 949.408000C552.512000 945.582101,562.132000 931.159919,562.132000 920.843000C562.132000 884.483814,532.064551 855.420000,495.472000 855.420000C466.230138 855.420000,445.353761 872.246461,434.734776 896.019292C434.734144 896.020707,434.734776 896.018288,434.734497 896.017665C424.115287 872.245693,403.239195 855.420000,373.998000 855.420000C337.405449 855.420000,307.338000 884.483814,307.338000 920.843000C307.338000 931.159919,316.958000 945.582101,316.958000 949.408000C316.958000 952.408619,313.715896 954.084000,310.385000 954.084000C296.003668 954.084000,253.171000 940.903673,253.171000 935.426000C253.171000 932.491111,299.476000 900.263482,299.476000 871.095000C299.476000 862.053675,233.150681 851.736609,194.835000 838.766000C98.208805 806.056140,33.801000 701.875023,33.801000 612.759000L33.801000 612.759000C33.801000 523.642977,98.208805 419.461860,194.835000 386.752000C233.150681 373.781391,299.476000 363.464325,299.476000 354.423000C299.476000 325.254518,253.171000 293.026889,253.171000 290.092000C253.171000 284.614327,296.003668 271.434000,310.385000 271.434000C313.715896 271.434000,316.958000 273.109381,316.958000 276.110000C316.958000 279.935899,307.338000 294.358081,307.338000 304.675000C307.338000 341.034186,337.405449 370.098000,373.998000 370.098000C403.239862 370.098000,424.116239 353.271539,434.735224 329.498708C434.735856 329.497293,434.735224 329.499712,434.735503 329.500335C445.354713 353.272307,466.230805 370.098000,495.472000 370.098000C532.064551 370.098000,562.132000 341.034186,562.132000 304.675000C562.132000 294.358081,552.512000 279.935899,552.512000 276.110000C552.512000 273.109381,555.754104 271.434000,559.085000 271.434000C573.466332 271.434000,616.299000 284.614327,616.299000 290.092000C616.299000 293.026889,569.994000 325.254518,569.994000 354.423000C569.994000 363.464325,636.319319 373.781391,674.635000 386.752000C771.261195 419.461860,835.669000 523.642977,835.669000 612.759000Z" style="fill: rgb(86.274510%,94.117647%,100.000000%);stroke: none;"></path>
  <path d="M434.735000 -0.781000C422.612104 -0.781000,410.924686 4.046567,402.821000 13.052000C392.471891 24.552719,383.993574 47.463199,378.964000 52.257000C371.826016 59.060374,344.195481 58.380595,328.473000 66.971000C308.623643 77.816236,295.780019 109.052742,286.416000 117.958000C279.324230 124.702331,261.463915 130.662531,248.767000 148.351000C235.779965 166.443645,233.293000 189.335869,233.293000 211.595000C233.293000 221.026870,252.774839 220.809173,255.279000 200.410000C259.592068 165.275274,280.241164 130.941000,310.115000 130.941000C330.875048 130.941000,360.958313 147.037000,369.143000 147.037000C377.316458 147.037000,386.504000 146.426490,386.504000 139.398000C386.504000 115.865767,322.615000 115.530961,322.615000 106.064000C322.615000 85.989298,348.083126 81.734000,371.457000 81.734000C389.986301 81.734000,417.466059 100.509000,421.921000 100.509000C426.472343 100.509000,430.949000 98.333103,430.949000 94.259000C430.949000 77.114340,404.560000 72.514660,404.560000 55.370000C404.560000 37.194282,417.299591 21.230000,434.735000 21.230000C449.409000 21.230000,449.409000 -0.781000,434.735000 -0.781000Z" style="fill: rgb(0.000000%,0.000000%,0.000000%);stroke: none;"></path>
  <path d="M434.735000 141.325000C404.347706 141.325000,366.250000 174.486236,366.250000 203.422000C366.250000 215.477928,388.433000 219.818196,388.433000 211.620000C388.433000 185.066812,408.674039 162.704000,434.735000 162.704000C448.987667 162.704000,448.987667 141.325000,434.735000 141.325000Z" style="fill: rgb(0.000000%,0.000000%,0.000000%);stroke: none;"></path>
  <path d="M434.735000 1113.954000C422.756806 1113.954000,404.763079 1113.152968,395.118000 1102.475000C389.209377 1095.933624,385.323553 1084.499000,377.824000 1084.499000C368.811612 1084.499000,348.293552 1090.057000,333.269000 1090.057000C315.946871 1090.057000,308.499050 1070.082515,294.394000 1061.350000C277.307629 1050.771733,250.450331 1056.861691,240.864000 1037.719000C237.172873 1030.348286,238.453000 1021.809361,238.453000 1013.607000C238.453000 1003.764137,204.360000 993.491234,204.360000 999.300000C204.360000 1033.511704,227.296396 1063.423268,260.248000 1072.777000C266.826277 1074.644328,273.710624 1075.598474,279.846000 1078.644000C295.001053 1086.166784,306.930630 1106.789000,320.542000 1106.789000C331.768531 1106.789000,342.953469 1108.155000,354.180000 1108.155000C366.552995 1108.155000,376.992056 1115.906087,387.750000 1121.899000C402.184115 1129.939793,418.206150 1135.000000,434.735000 1135.000000C448.765667 1135.000000,448.765667 1113.954000,434.735000 1113.954000Z" style="fill: rgb(0.000000%,0.000000%,0.000000%);stroke: none;"></path>
  <path d="M426.735000 290.286000C426.735000 221.980378,475.890595 187.064000,569.887000 187.064000C706.985230 187.064000,869.470000 380.643701,869.470000 612.759000C869.470000 625.788953,835.669000 628.602130,835.669000 612.759000C835.669000 523.642977,771.261195 419.461860,674.635000 386.752000C636.319319 373.781391,569.994000 363.464325,569.994000 354.423000C569.994000 325.254518,616.299000 293.026889,616.299000 290.092000C616.299000 284.614327,573.466332 271.434000,559.085000 271.434000C555.754104 271.434000,552.512000 273.109381,552.512000 276.110000C552.512000 279.935899,562.132000 294.358081,562.132000 304.675000C562.132000 341.034186,532.064551 370.098000,495.472000 370.098000C451.754629 370.098000,426.735000 332.489085,426.735000 290.286000Z" style="fill: rgb(0.000000%,0.000000%,0.000000%);stroke: none;"></path>
  <path d="M446.263000 284.947000C446.263000 318.118163,465.706585 349.190000,496.313000 349.190000C511.470038 349.190000,538.425000 331.269354,538.425000 308.553000C538.425000 296.089291,529.450961 285.277000,517.411000 285.277000C499.901386 285.277000,504.492890 319.339000,495.859000 319.339000C486.133358 319.339000,478.489529 297.471268,488.271000 277.688000C496.315008 261.418794,514.682603 254.059000,533.120000 254.059000C640.226869 254.059000,739.803000 323.412559,739.803000 356.726000C739.803000 363.040946,736.079301 370.033000,733.576000 370.033000C723.801362 370.033000,690.995818 312.893000,651.272000 312.893000C631.313567 312.893000,610.508000 330.666793,610.508000 336.648000C610.508000 348.746046,663.986229 352.572993,709.060000 374.798000C750.369416 395.166877,788.262438 434.170328,813.715000 476.942000C817.273515 482.921895,823.022512 492.925000,824.196000 492.925000C826.746917 492.925000,827.777000 489.909468,827.777000 486.986000C827.777000 430.562651,716.858491 206.797000,554.339000 206.797000C494.539761 206.797000,446.263000 250.481105,446.263000 284.947000Z" style="fill: rgb(100.000000%,100.000000%,100.000000%);stroke: none;"></path>
  <path d="M434.735000 -0.781000C446.857896 -0.781000,458.545314 4.046567,466.649000 13.052000C476.998109 24.552719,485.476426 47.463199,490.506000 52.257000C497.643984 59.060374,525.274519 58.380595,540.997000 66.971000C560.846357 77.816236,573.689981 109.052742,583.054000 117.958000C590.145770 124.702331,608.006085 130.662531,620.703000 148.351000C633.690035 166.443645,636.177000 189.335869,636.177000 211.595000C636.177000 221.026870,616.695161 220.809173,614.191000 200.410000C609.877932 165.275274,589.228836 130.941000,559.355000 130.941000C538.594952 130.941000,508.511687 147.037000,500.327000 147.037000C492.153542 147.037000,482.966000 146.426490,482.966000 139.398000C482.966000 115.865767,546.855000 115.530961,546.855000 106.064000C546.855000 85.989298,521.386874 81.734000,498.013000 81.734000C479.483699 81.734000,452.003941 100.509000,447.549000 100.509000C442.997657 100.509000,438.521000 98.333103,438.521000 94.259000C438.521000 77.114340,464.910000 72.514660,464.910000 55.370000C464.910000 37.194282,452.170409 21.230000,434.735000 21.230000C420.061000 21.230000,420.061000 -0.781000,434.735000 -0.781000Z" style="fill: rgb(0.000000%,0.000000%,0.000000%);stroke: none;"></path>
  <path d="M434.735000 141.325000C465.122294 141.325000,503.220000 174.486236,503.220000 203.422000C503.220000 215.477928,481.037000 219.818196,481.037000 211.620000C481.037000 185.066812,460.795961 162.704000,434.735000 162.704000C420.482333 162.704000,420.482333 141.325000,434.735000 141.325000Z" style="fill: rgb(0.000000%,0.000000%,0.000000%);stroke: none;"></path>
  <path d="M434.735000 1113.954000C446.713194 1113.954000,464.706921 1113.152968,474.352000 1102.475000C480.260623 1095.933624,484.146447 1084.499000,491.646000 1084.499000C500.658388 1084.499000,521.176448 1090.057000,536.201000 1090.057000C553.523129 1090.057000,560.970950 1070.082515,575.076000 1061.350000C592.162371 1050.771733,619.019669 1056.861691,628.606000 1037.719000C632.297127 1030.348286,631.017000 1021.809361,631.017000 1013.607000C631.017000 1003.764137,665.110000 993.491234,665.110000 999.300000C665.110000 1033.511704,642.173604 1063.423268,609.222000 1072.777000C602.643723 1074.644328,595.759376 1075.598474,589.624000 1078.644000C574.468947 1086.166784,562.539370 1106.789000,548.928000 1106.789000C537.701469 1106.789000,526.516531 1108.155000,515.290000 1108.155000C502.917005 1108.155000,492.477944 1115.906087,481.720000 1121.899000C467.285885 1129.939793,451.263850 1135.000000,434.735000 1135.000000C420.704333 1135.000000,420.704333 1113.954000,434.735000 1113.954000Z" style="fill: rgb(0.000000%,0.000000%,0.000000%);stroke: none;"></path>
</svg>
